<svg width="26" height="15" viewBox="0 0 26 15" fill="none" xmlns="http://www.w3.org/2000/svg">
<g clip-path="url(#clip0_1715_11581)">
<mask id="path-1-inside-1_1715_11581" fill="white">
<path fill-rule="evenodd" clip-rule="evenodd" d="M25.5802 13.999C24.1381 13.999 22.8076 13.2227 22.098 11.9673L16.4823 2.03177C14.9511 -0.677257 11.0489 -0.677257 9.51775 2.03177L3.90204 11.9673C3.19243 13.2227 1.86194 13.999 0.419785 13.999H-124C-131.732 13.999 -138 20.267 -138 27.999V172.999C-138 180.731 -131.732 186.999 -124 186.999H36C43.732 186.999 50 180.731 50 172.999V27.999C50 20.267 43.732 13.999 36 13.999H25.5802Z"/>
</mask>
<path fill-rule="evenodd" clip-rule="evenodd" d="M25.5802 13.999C24.1381 13.999 22.8076 13.2227 22.098 11.9673L16.4823 2.03177C14.9511 -0.677257 11.0489 -0.677257 9.51775 2.03177L3.90204 11.9673C3.19243 13.2227 1.86194 13.999 0.419785 13.999H-124C-131.732 13.999 -138 20.267 -138 27.999V172.999C-138 180.731 -131.732 186.999 -124 186.999H36C43.732 186.999 50 180.731 50 172.999V27.999C50 20.267 43.732 13.999 36 13.999H25.5802Z" fill="white"/>
<path d="M3.90204 11.9673L3.03148 11.4752L3.90204 11.9673ZM22.098 11.9673L22.9685 11.4752L22.098 11.9673ZM16.4823 2.03177L17.3528 1.53971L16.4823 2.03177ZM9.51775 2.03177L8.64719 1.53971L9.51775 2.03177ZM15.6117 2.52383L21.2274 12.4593L22.9685 11.4752L17.3528 1.53971L15.6117 2.52383ZM4.7726 12.4593L10.3883 2.52383L8.64719 1.53971L3.03148 11.4752L4.7726 12.4593ZM-124 14.999H0.419785V12.999H-124V14.999ZM-137 27.999C-137 20.8193 -131.18 14.999 -124 14.999V12.999C-132.284 12.999 -139 19.7148 -139 27.999H-137ZM-137 172.999V27.999H-139V172.999H-137ZM-124 185.999C-131.18 185.999 -137 180.179 -137 172.999H-139C-139 181.283 -132.284 187.999 -124 187.999V185.999ZM36 185.999H-124V187.999H36V185.999ZM49 172.999C49 180.179 43.1797 185.999 36 185.999V187.999C44.2843 187.999 51 181.283 51 172.999H49ZM49 27.999V172.999H51V27.999H49ZM36 14.999C43.1797 14.999 49 20.8193 49 27.999H51C51 19.7148 44.2843 12.999 36 12.999V14.999ZM25.5802 14.999H36V12.999H25.5802V14.999ZM3.03148 11.4752C2.49927 12.4168 1.5014 12.999 0.419785 12.999V14.999C2.22247 14.999 3.88557 14.0287 4.7726 12.4593L3.03148 11.4752ZM21.2274 12.4593C22.1144 14.0287 23.7775 14.999 25.5802 14.999V12.999C24.4986 12.999 23.5007 12.4168 22.9685 11.4752L21.2274 12.4593ZM17.3528 1.53971C15.4388 -1.84657 10.5612 -1.84657 8.64719 1.53971L10.3883 2.52383C11.5367 0.492057 14.4633 0.492057 15.6117 2.52383L17.3528 1.53971Z" fill="#12AA9B" mask="url(#path-1-inside-1_1715_11581)"/>
</g>
<defs>
<clipPath id="clip0_1715_11581">
<rect width="26" height="15" fill="white"/>
</clipPath>
</defs>
</svg>
