<svg width="22" height="22" viewBox="0 0 22 22" fill="none" xmlns="http://www.w3.org/2000/svg">
<path d="M20.7985 19.7376L16.8852 15.8243C18.386 14.0499 19.1428 11.7641 18.9976 9.44468C18.8523 7.12526 17.8163 4.95172 16.1059 3.37834C14.3956 1.80497 12.1433 0.953521 9.81985 1.00196C7.49639 1.0504 5.28156 1.99497 3.63826 3.63826C1.99497 5.28156 1.0504 7.49639 1.00196 9.81985C0.953521 12.1433 1.80497 14.3956 3.37834 16.1059C4.95172 17.8163 7.12526 18.8523 9.44468 18.9976C11.7641 19.1428 14.0499 18.386 15.8243 16.8852L19.7376 20.7985C19.8799 20.9311 20.0681 21.0033 20.2626 20.9999C20.4571 20.9965 20.6426 20.9177 20.7801 20.7801C20.9177 20.6426 20.9965 20.4571 20.9999 20.2626C21.0033 20.0681 20.9311 19.8799 20.7985 19.7376ZM2.50212 10.0084C2.50212 8.52383 2.94236 7.07256 3.76716 5.83815C4.59197 4.60375 5.7643 3.64164 7.1359 3.07351C8.5075 2.50537 10.0168 2.35672 11.4729 2.64635C12.9289 2.93599 14.2664 3.65089 15.3162 4.70067C16.366 5.75045 17.0809 7.08795 17.3705 8.54403C17.6602 10.0001 17.5115 11.5094 16.9434 12.881C16.3752 14.2526 15.4131 15.4249 14.1787 16.2497C12.9443 17.0745 11.4931 17.5148 10.0084 17.5148C8.01764 17.5148 6.10838 16.7239 4.70067 15.3162C3.29296 13.9085 2.50212 11.9992 2.50212 10.0084Z" fill="black" stroke="black" stroke-width="0.5"/>
</svg>
