<svg width="28" height="37" viewBox="0 0 28 37" fill="none" xmlns="http://www.w3.org/2000/svg">
<path d="M0 18.5C0 10.768 6.26801 4.48485 14 4.48485V4.48485H21H21.1861C24.1492 4.48485 26.8282 2.72159 28 0V0V37V37C26.8282 34.2784 24.1492 32.5152 21.1861 32.5152H21H14V32.5152C6.26801 32.5152 0 26.232 0 18.5V18.5Z" fill="#E6E6E7"/>
<path d="M1.5 18.5C1.5 11.3873 7.26603 5.62123 14.3788 5.62123H14.75H21.375H22.8657C24.9308 5.62123 26.8586 4.58653 28 2.86548V34.3976C26.8655 32.5236 24.8341 31.3788 22.6435 31.3788H21.375H14.75H14.3788C7.26603 31.3788 1.5 25.6128 1.5 18.5Z" fill="white"/>
<path d="M20.4998 18.4877C20.4998 18.2225 20.3944 17.9681 20.2069 17.7806C20.0194 17.5931 19.765 17.4877 19.4998 17.4877H7.91379L10.2068 15.1947C10.3889 15.0061 10.4897 14.7535 10.4875 14.4913C10.4852 14.2291 10.38 13.9783 10.1946 13.7929C10.0092 13.6075 9.75838 13.5023 9.49619 13.5C9.23399 13.4978 8.98139 13.5986 8.79279 13.7807L4.79279 17.7807C4.60531 17.9682 4.5 18.2225 4.5 18.4877C4.5 18.7529 4.60531 19.0072 4.79279 19.1947L8.79279 23.1947C8.98139 23.3769 9.23399 23.4777 9.49619 23.4754C9.75838 23.4731 10.0092 23.3679 10.1946 23.1825C10.38 22.9971 10.4852 22.7463 10.4875 22.4841C10.4897 22.2219 10.3889 21.9693 10.2068 21.7807L7.91379 19.4877H19.4998C19.765 19.4877 20.0194 19.3824 20.2069 19.1948C20.3944 19.0073 20.4998 18.7529 20.4998 18.4877Z" fill="#12AA9B"/>
</svg>
